<svg width="19" height="15" viewBox="0 0 19 15" fill="none" xmlns="http://www.w3.org/2000/svg">
<path d="M17.1413 6.42501H3.58825L7.73645 1.75714C7.93042 1.53851 8.02374 1.25664 7.99588 0.973537C7.96802 0.69044 7.82126 0.429305 7.58789 0.247581C7.35452 0.0658572 7.05366 -0.0215709 6.75148 0.00453029C6.44931 0.0306315 6.17058 0.168124 5.97661 0.386761L0.262834 6.81043C0.224392 6.86152 0.190016 6.9152 0.159986 6.97102C0.159986 7.02455 0.159986 7.05667 0.079993 7.1102C0.0281959 7.23295 0.00107547 7.36362 0 7.49562C0.00107547 7.62761 0.0281959 7.75828 0.079993 7.88104C0.079993 7.93457 0.0799927 7.96669 0.159986 8.02022C0.190016 8.07604 0.224392 8.12972 0.262834 8.18081L5.97661 14.6045C6.08405 14.7253 6.2186 14.8225 6.37068 14.8891C6.52276 14.9558 6.68865 14.9902 6.85653 14.9899C7.12354 14.9904 7.3823 14.9033 7.58789 14.7437C7.70361 14.6538 7.79926 14.5434 7.86937 14.4188C7.93948 14.2943 7.98267 14.158 7.99647 14.0178C8.01027 13.8775 7.9944 13.7361 7.94979 13.6017C7.90517 13.4672 7.83267 13.3423 7.73645 13.2341L3.58825 8.56623H17.1413C17.4444 8.56623 17.7351 8.45343 17.9494 8.25266C18.1637 8.05188 18.2841 7.77956 18.2841 7.49562C18.2841 7.21168 18.1637 6.93936 17.9494 6.73858C17.7351 6.5378 17.4444 6.42501 17.1413 6.42501Z" fill="#0C120C"/>
</svg>
