<svg width="15" height="16" viewBox="0 0 15 16" fill="none" xmlns="http://www.w3.org/2000/svg">
<path d="M7.5 0C7.00272 0 6.52581 0.187301 6.17418 0.520699C5.82254 0.854097 5.625 1.30628 5.625 1.77778V2.08089C3.44063 2.81333 1.875 4.78933 1.875 7.11111V11.5556H0.9375C0.68886 11.5556 0.450403 11.6492 0.274588 11.8159C0.0987722 11.9826 0 12.2087 0 12.4444C0 12.6802 0.0987722 12.9063 0.274588 13.073C0.450403 13.2397 0.68886 13.3333 0.9375 13.3333H14.0625C14.3111 13.3333 14.5496 13.2397 14.7254 13.073C14.9012 12.9063 15 12.6802 15 12.4444C15 12.2087 14.9012 11.9826 14.7254 11.8159C14.5496 11.6492 14.3111 11.5556 14.0625 11.5556H13.125V7.11111C13.1251 6.00794 12.7646 4.93186 12.093 4.03101C11.4215 3.13017 10.4719 2.44886 9.375 2.08089V1.77778C9.375 1.30628 9.17746 0.854097 8.82582 0.520699C8.47419 0.187301 7.99728 0 7.5 0ZM7.5 16C7.00272 16 6.52581 15.8127 6.17418 15.4793C5.82254 15.1459 5.625 14.6937 5.625 14.2222H9.375C9.375 14.6937 9.17746 15.1459 8.82582 15.4793C8.47419 15.8127 7.99728 16 7.5 16Z" fill="#FDFDFF"/>
</svg>
