<svg width="15" height="15" viewBox="0 0 15 15" fill="none" xmlns="http://www.w3.org/2000/svg">
<path fill-rule="evenodd" clip-rule="evenodd" d="M7.50341 0C3.36999 0 0 3.36522 0 7.49796C0 11.6307 3.37067 15 7.50341 15C11.6361 15 15 11.6307 15 7.49796C15 3.36522 11.6361 0 7.50341 0ZM7.50341 1.36326C8.30934 1.36192 9.10761 1.51969 9.85244 1.82752C10.5973 2.13536 11.274 2.58721 11.8438 3.15715C12.4136 3.7271 12.8653 4.40393 13.173 5.14882C13.4807 5.89372 13.6383 6.69202 13.6367 7.49796C13.6384 8.30411 13.4808 9.10265 13.1733 9.84781C12.8657 10.593 12.414 11.2701 11.8443 11.8404C11.2745 12.4107 10.5977 12.8629 9.85285 13.1712C9.10796 13.4794 8.30956 13.6376 7.50341 13.6367C6.69691 13.6377 5.89814 13.4796 5.15283 13.1715C4.40751 12.8633 3.7303 12.4112 3.15995 11.841C2.58961 11.2708 2.13734 10.5937 1.82904 9.84843C1.52074 9.10319 1.36246 8.30445 1.36326 7.49796C1.36326 4.10206 4.10752 1.36326 7.50341 1.36326ZM7.4925 2.71699C7.4024 2.71787 7.31338 2.73661 7.23057 2.77211C7.14776 2.80762 7.07281 2.85919 7.01006 2.92385C6.9473 2.9885 6.89799 3.06496 6.86497 3.14879C6.83195 3.23262 6.81588 3.32217 6.81769 3.41225V7.49796C6.81806 7.58765 6.83614 7.67639 6.87088 7.75909C6.90562 7.84179 6.95634 7.91681 7.02013 7.97987L9.74666 10.7078C9.80973 10.7727 9.88509 10.8244 9.96834 10.8598C10.0516 10.8953 10.1411 10.9138 10.2316 10.9143C10.3221 10.9149 10.4118 10.8974 10.4954 10.8629C10.5791 10.8283 10.655 10.7775 10.7188 10.7133C10.7827 10.6492 10.833 10.5729 10.8671 10.4891C10.9011 10.4052 10.9181 10.3154 10.9171 10.225C10.9161 10.1345 10.897 10.0451 10.8611 9.96203C10.8251 9.87897 10.773 9.80391 10.7078 9.74121L8.18231 7.21576V3.41225C8.18415 3.3209 8.1676 3.23012 8.13365 3.1453C8.0997 3.06047 8.04905 2.98334 7.9847 2.91848C7.92035 2.85362 7.84362 2.80236 7.75906 2.76775C7.67451 2.73313 7.58386 2.71587 7.4925 2.71699Z" fill="#565656"/>
</svg>
