<svg width="15" height="15" viewBox="0 0 15 15" fill="none" xmlns="http://www.w3.org/2000/svg">
<path d="M14.936 0.414881C15.0565 0.705653 15.0069 0.953872 14.787 1.15954L9.54249 6.40407V14.2974C9.54249 14.5953 9.4042 14.8045 9.12761 14.9251C9.03542 14.9605 8.94677 14.9783 8.86166 14.9783C8.67018 14.9783 8.51061 14.9109 8.38295 14.7762L5.65963 12.0528C5.52488 11.9181 5.45751 11.7585 5.45751 11.5741V6.40407L0.212981 1.15954C-0.00687035 0.953872 -0.0565143 0.705653 0.0640495 0.414881C0.184613 0.138294 0.393827 0 0.691691 0H14.3083C14.6062 0 14.8154 0.138294 14.936 0.414881Z" fill="#FDFDFF"/>
</svg>
