<svg width="45" height="44" viewBox="0 0 45 44" fill="none" xmlns="http://www.w3.org/2000/svg">
<path d="M22.4972 0C10.0744 0 1.29838e-05 10.0992 1.29838e-05 22.5576C-0.00506251 27.2858 1.47802 31.896 4.23966 35.7367C7.0013 39.5774 10.9018 42.4543 15.39 43.9609C16.515 44.1687 16.9256 43.4722 16.9256 42.874C16.9256 42.3376 16.9059 40.9193 16.8947 39.0376C10.6369 40.3997 9.31501 36.0129 9.31501 36.0129C8.29407 33.4067 6.81751 32.713 6.81751 32.713C4.77282 31.3144 6.96938 31.3425 6.96938 31.3425C9.22782 31.5025 10.4147 33.6679 10.4147 33.6679C12.4228 37.1138 15.6825 36.1196 16.965 35.5411C17.1675 34.0835 17.7497 33.0893 18.3938 32.5248C13.3988 31.9547 8.14501 30.0197 8.14501 21.378C8.14501 18.915 9.02251 16.9013 10.4625 15.323C10.2291 14.7529 9.45844 12.4583 10.6819 9.35499C10.6819 9.35499 12.5719 8.74836 16.8694 11.6664C18.7052 11.1654 20.5996 10.9104 22.5028 10.9081C24.4061 10.9118 26.3004 11.1678 28.1362 11.6692C32.4309 8.75117 34.3181 9.3578 34.3181 9.3578C35.5444 12.464 34.7737 14.7557 34.5431 15.3258C35.9859 16.9041 36.855 18.9178 36.855 21.3808C36.855 30.0449 31.5956 31.9519 26.5837 32.5108C27.3909 33.2073 28.1109 34.5834 28.1109 36.687C28.1109 39.7032 28.0828 42.1354 28.0828 42.874C28.0828 43.4778 28.4878 44.1799 29.6297 43.9581C34.1135 42.4479 38.0092 39.5699 40.767 35.7301C43.5248 31.8904 45.0054 27.2828 45 22.5576C45 10.0992 34.9256 0 22.4972 0Z" fill="black"/>
</svg>
