<svg width="30" height="20" viewBox="0 0 30 20" fill="none" xmlns="http://www.w3.org/2000/svg">
<path d="M28.3333 8.33333H1.66667C0.666667 8.33333 0 9 0 10C0 11 0.666667 11.6667 1.66667 11.6667H28.3333C29.3333 11.6667 30 11 30 10C30 9 29.3333 8.33333 28.3333 8.33333ZM1.66667 3.33333H28.3333C29.3333 3.33333 30 2.66667 30 1.66667C30 0.666667 29.3333 0 28.3333 0H1.66667C0.666667 0 0 0.666667 0 1.66667C0 2.66667 0.666667 3.33333 1.66667 3.33333ZM28.3333 16.6667H1.66667C0.666667 16.6667 0 17.3333 0 18.3333C0 19.3333 0.666667 20 1.66667 20H28.3333C29.3333 20 30 19.3333 30 18.3333C30 17.3333 29.3333 16.6667 28.3333 16.6667Z" fill="#0C120C"/>
</svg>
