<svg width="45" height="45" viewBox="0 0 45 45" fill="none" xmlns="http://www.w3.org/2000/svg">
<path d="M22.5 0C10.0735 0 0 10.0735 0 22.5C0 34.9264 10.0735 44.9999 22.5 44.9999C34.9264 44.9999 45 34.9264 45 22.5C44.9999 10.0735 34.9262 0 22.5 0ZM16.4969 33.3777H11.5568V17.4176H16.4969V33.3777ZM14.0033 15.3275C12.39 15.3275 11.082 14.0089 11.082 12.3826C11.082 10.7562 12.3901 9.43764 14.0033 9.43764C15.6165 9.43764 16.9245 10.7562 16.9245 12.3826C16.9246 14.009 15.6166 15.3275 14.0033 15.3275ZM35.0099 33.3777H30.0938V25C30.0938 22.7022 29.221 21.4196 27.4041 21.4196C25.4267 21.4196 24.3937 22.7554 24.3937 25V33.3777H19.6555V17.4176H24.3937V19.5672C24.3937 19.5672 25.8189 16.9308 29.2031 16.9308C32.5874 16.9308 35.01 18.9972 35.01 23.272L35.0099 33.3777Z" fill="url(#paint0_linear_40_1147)"/>
<defs>
<linearGradient id="paint0_linear_40_1147" x1="-8.18792" y1="4.18704" x2="23.6318" y2="36.0068" gradientUnits="userSpaceOnUse">
<stop stop-color="#2489BE"/>
<stop offset="1" stop-color="#0575B3"/>
</linearGradient>
</defs>
</svg>
