<svg width="18" height="18" viewBox="0 0 18 18" fill="none" xmlns="http://www.w3.org/2000/svg">
<path d="M2.12241 12.3665C3.36939 13.6149 5.02996 14.3643 6.7913 14.4736C8.55264 14.5828 10.2932 14.0444 11.685 12.9598L16.4739 17.7473C16.6437 17.9113 16.8712 18.002 17.1073 18C17.3434 17.9979 17.5693 17.9032 17.7362 17.7363C17.9032 17.5694 17.9979 17.3436 18 17.1076C18.002 16.8715 17.9113 16.6441 17.7472 16.4743L12.9583 11.6868C14.0914 10.2331 14.6271 8.40193 14.4562 6.56689C14.2852 4.73184 13.4205 3.03109 12.0384 1.81149C10.6563 0.591898 8.8608 -0.0546788 7.0182 0.00362648C5.17559 0.0619317 3.42464 0.820728 2.12241 2.12526C1.44955 2.79759 0.915783 3.59586 0.551611 4.47448C0.18744 5.35309 0 6.29483 0 7.24588C0 8.19694 0.18744 9.13867 0.551611 10.0173C0.915783 10.8959 1.44955 11.6942 2.12241 12.3665ZM3.39574 3.40002C4.28596 2.51007 5.4573 1.95623 6.71019 1.83286C7.96308 1.70949 9.22 2.02421 10.2668 2.72341C11.3136 3.42261 12.0855 4.46303 12.451 5.6674C12.8165 6.87177 12.753 8.16558 12.2713 9.32839C11.7896 10.4912 10.9196 11.4511 9.80931 12.0445C8.69907 12.6379 7.41736 12.8281 6.18258 12.5827C4.94779 12.3373 3.83631 11.6714 3.03751 10.6986C2.23872 9.72585 1.80202 8.50627 1.80183 7.24768C1.79936 6.5325 1.93898 5.82395 2.2126 5.16314C2.48621 4.50233 2.88837 3.90242 3.39574 3.39822V3.40002Z" fill="#565656"/>
</svg>
