<svg width="18" height="13" viewBox="0 0 18 13" fill="none" xmlns="http://www.w3.org/2000/svg">
<path d="M5.71788 12.9482C5.62977 12.9488 5.54243 12.9319 5.46086 12.8986C5.37929 12.8652 5.30511 12.8161 5.24255 12.7541L0.19468 7.70623C0.0699886 7.5808 0 7.41111 0 7.23425C0 7.05738 0.0699886 6.8877 0.19468 6.76226C0.256916 6.69952 0.330961 6.64971 0.412544 6.61572C0.494126 6.58173 0.58163 6.56423 0.67001 6.56423C0.758389 6.56423 0.845893 6.58173 0.927475 6.61572C1.00906 6.64971 1.0831 6.69952 1.14534 6.76226L5.71788 11.3348L16.858 0.194679C16.9834 0.0699883 17.1531 0 17.33 0C17.5069 0 17.6765 0.0699883 17.802 0.194679C17.8647 0.256916 17.9145 0.330961 17.9485 0.412543C17.9825 0.494125 18 0.58163 18 0.670009C18 0.758388 17.9825 0.845893 17.9485 0.927475C17.9145 1.00906 17.8647 1.0831 17.802 1.14534L6.18651 12.7541C6.06182 12.8778 5.89351 12.9475 5.71788 12.9482Z" fill="#FDFDFF"/>
</svg>
