<svg width="54" height="29" viewBox="0 0 54 29" fill="none" xmlns="http://www.w3.org/2000/svg">
<rect x="0.975657" width="8.69831" height="28.9944" fill="#3A73D1"/>
<path d="M9.67397 28.9944C9.67397 14.4972 9.67397 22.5038 9.67397 14.4972C9.67397 6.49061 9.67397 14.4972 9.67397 0C17.6805 0 24.1711 6.49061 24.1711 14.4972C24.1711 22.5038 17.6805 28.9944 9.67397 28.9944Z" fill="#4285F4"/>
<path d="M38.5272 28.9944C38.5272 14.4972 38.5272 22.5038 38.5272 14.4972C38.5272 6.49061 38.5272 14.4972 38.5272 0C46.5337 0 53.0243 6.49061 53.0243 14.4972C53.0243 22.5038 46.5337 28.9944 38.5272 28.9944Z" fill="#3A73D1"/>
<path d="M38.6502 -7.62939e-06C38.6502 14.4972 38.6502 6.4906 38.6502 14.4972C38.6502 22.5037 38.6502 14.4972 38.6502 28.9944C30.6437 28.9944 24.153 22.5037 24.153 14.4972C24.153 6.4906 30.6437 -7.62939e-06 38.6502 -7.62939e-06Z" fill="#4285F4"/>
</svg>
